<svg id="Layer_1" data-name="Layer 1" xmlns="http://www.w3.org/2000/svg" viewBox="0 0 96 96"><defs><style>.cls-1{fill:#563d7c;}</style></defs><path class="cls-1" d="M0,73.69a1.77,1.77,0,0,1,.21,0c2.66,0,5.31,0,8,0a4.3,4.3,0,0,1,2.48.86,3.66,3.66,0,0,1-.47,5.9l-.4.22a9.63,9.63,0,0,1,1.25.58,4.24,4.24,0,0,1,1.34,4.85A4.13,4.13,0,0,1,9,88.71a6.6,6.6,0,0,1-1.53.18c-2.48,0-5,0-7.49,0V73.69Zm2.66,13c1.85,0,3.64,0,5.43,0A2.21,2.21,0,0,0,10,84.24a2.12,2.12,0,0,0-1.88-2.19C6.31,82,4.53,82,2.75,82c0,0-.06,0-.09.07v4.63Zm0-6.68c1.66,0,3.25.06,4.83,0A2,2,0,0,0,9.28,77.7a1.77,1.77,0,0,0-1.91-1.84c-1.51,0-3,0-4.52,0a.77.77,0,0,0-.19,0ZM85,77.9h2.21v1.19c.25-.19.55-.41.83-.64,1.69-1.46,5.72-1.28,7.1,1.65a7.11,7.11,0,0,1-.47,7.42A4,4,0,0,1,90.9,89.2a4.31,4.31,0,0,1-3.48-1.75V93H85V77.9Zm2.25,5.56a15.64,15.64,0,0,0,.31,1.66,3,3,0,0,0,2.48,2.16,2.74,2.74,0,0,0,3-1.72,5,5,0,0,0-.33-4.82,2.85,2.85,0,0,0-4.89.23,5.22,5.22,0,0,0-.59,2.49Zm-3.82,3.87c0,.45,0,.91,0,1.36,0,.12-.14.31-.24.32a12,12,0,0,1-2.07.08c-.6-.06-.93-.57-1.12-1.16a6.09,6.09,0,0,1-4.81,1.2,3.15,3.15,0,0,1-2.76-2.71c-.15-1.83.56-3,2.2-3.45,1.15-.31,2.35-.43,3.53-.63a8.17,8.17,0,0,0,.86-.17,1.13,1.13,0,0,0,1-1,1.27,1.27,0,0,0-.8-1.37,3.75,3.75,0,0,0-3,.07,2.06,2.06,0,0,0-1,1.37H72.86a3.17,3.17,0,0,1,.91-2.27,4.38,4.38,0,0,1,2.89-1.27,7.88,7.88,0,0,1,3.41.26A2.94,2.94,0,0,1,82.28,81v5c0,1.2,0,1.2,1.19,1.3Zm-3.61-3.8c-.74.13-1.41.23-2.08.36a16.22,16.22,0,0,0-2.08.52,1.41,1.41,0,0,0-.85,1.51,1.29,1.29,0,0,0,1,1.17,3.63,3.63,0,0,0,2.8-.13,1.88,1.88,0,0,0,1.2-1.56C79.89,84.77,79.86,84.14,79.86,83.53Zm-60.1-6c3.66,0,5.81,2.64,5.58,6.3a5.81,5.81,0,0,1-1.25,3.46,5,5,0,0,1-3.45,1.81,6.26,6.26,0,0,1-3.37-.44A5,5,0,0,1,14.37,85a7.36,7.36,0,0,1,0-3.46,5.15,5.15,0,0,1,5.35-4Zm-3.19,5.83c.1.54.15,1.09.3,1.61a3,3,0,0,0,2.63,2.26,2.86,2.86,0,0,0,3.06-1.93,5.05,5.05,0,0,0,0-4,2.93,2.93,0,0,0-4.78-1,4.39,4.39,0,0,0-1.16,3.12Zm15.9-5.83a5.31,5.31,0,0,1,5.59,5.53A6.44,6.44,0,0,1,37,87a5.21,5.21,0,0,1-4.83,2.17,6.5,6.5,0,0,1-2.13-.46,4.71,4.71,0,0,1-2.93-3.46A7.33,7.33,0,0,1,27.28,81a5.15,5.15,0,0,1,5.19-3.44Zm3.16,5.54a10.33,10.33,0,0,0-.26-1.4,3,3,0,0,0-2.81-2.25,2.91,2.91,0,0,0-2.88,2A4.94,4.94,0,0,0,30,86a2.89,2.89,0,0,0,4.3.7c1-.85,1.28-2,1.32-3.54ZM56.06,81H53.84a.34.34,0,0,1-.26-.17c-.41-1.15-1.39-1.29-2.39-1.29a3.28,3.28,0,0,0-1.24.26.92.92,0,0,0-.15,1.72,7.82,7.82,0,0,0,1.77.65c.86.24,1.74.38,2.59.64A3,3,0,0,1,56,87.39,4,4,0,0,1,53.51,89a7.58,7.58,0,0,1-4.4-.14,3.56,3.56,0,0,1-2.48-3.38H49A3,3,0,0,0,53.33,87,1.14,1.14,0,0,0,54,86a1.05,1.05,0,0,0-.63-1.13c-.83-.31-1.7-.52-2.54-.77s-1.43-.36-2.11-.62a2.69,2.69,0,0,1-1.87-2.78A2.78,2.78,0,0,1,48.82,78a7.07,7.07,0,0,1,5.12,0,3.41,3.41,0,0,1,2.12,2.53A2.78,2.78,0,0,1,56.06,81Zm-12.8-3.09h2.18v1.78H43.3c0,.22,0,.37,0,.51,0,1.81,0,3.61,0,5.41,0,.24,0,.48,0,.72a.78.78,0,0,0,.79.78c.44,0,.88,0,1.35,0v1.78a6.43,6.43,0,0,1-3,0c-1.15-.26-1.61-1-1.62-2.53,0-2,0-4,0-6.07v-.6H39v-1.8h1.79V74.57h2.45v3.3ZM63.67,88.93c-.94,0-1.83,0-2.71,0a1.77,1.77,0,0,1-1.71-1.45A6.72,6.72,0,0,1,59.08,86c0-1.9,0-3.81,0-5.71v-.61H57.26V77.89H59V74.57h2.45v3.27h2.18v1.79H61.58c0,.17-.06.28-.06.39,0,1.94,0,3.88,0,5.82,0,1,.27,1.27,1.29,1.26h.85Zm4.08-11v1.88a3.83,3.83,0,0,1,4.16-2.14V80a3.3,3.3,0,0,0-2.57.4,3.55,3.55,0,0,0-1.41,3c0,1.83,0,3.66,0,5.54h-2.4v-11Z"/><path class="cls-1" d="M54.2,42.06a5.66,5.66,0,0,0-3.48-1H43.48v8.3H50.6a8.63,8.63,0,0,0,1.86-.19A4.68,4.68,0,0,0,54,48.54a3.22,3.22,0,0,0,1.08-1.2,4.15,4.15,0,0,0,.4-2A3.93,3.93,0,0,0,54.2,42.06Z"/><path class="cls-1" d="M66.28,14.44H29.21a6.44,6.44,0,0,0-6.44,6.44V58h0a6.44,6.44,0,0,0,6.44,6.44H66.28A6.44,6.44,0,0,0,72.72,58V20.88A6.44,6.44,0,0,0,66.28,14.44Zm-5,35.29a7.61,7.61,0,0,1-2.39,2.73A10.65,10.65,0,0,1,55.45,54a15.47,15.47,0,0,1-4,.51H36.83V24.29H51.06a19.16,19.16,0,0,1,3.94.38,8.77,8.77,0,0,1,3,1.25,5.83,5.83,0,0,1,2,2.31,8.07,8.07,0,0,1,.7,3.56,6.61,6.61,0,0,1-1,3.81,7.47,7.47,0,0,1-3.07,2.5,7.28,7.28,0,0,1,4.17,2.82,9.23,9.23,0,0,1,.49,8.81Z"/><path class="cls-1" d="M53.14,35.69a3.21,3.21,0,0,0,1.14-2.76,3.55,3.55,0,0,0-.38-1.73,2.74,2.74,0,0,0-1-1.06,4.16,4.16,0,0,0-1.46-.53,9.54,9.54,0,0,0-1.71-.15H43.48v7.08h6.73A4.84,4.84,0,0,0,53.14,35.69Z"/></svg>